<svg fill="none" height="15" viewBox="0 0 19 15" width="19" xmlns="http://www.w3.org/2000/svg">
    <path
        d="M12.5509 8.58662C12.5509 10.1956 11.1778 11.5045 9.48993 11.5045C7.80203 11.5045 6.42946 10.1956 6.42946 8.58662C6.42946 6.97763 7.80203 5.66872 9.48993 5.66872C11.1778 5.66872 12.5509 6.97813 12.5509 8.58662ZM18.9799 4.44334V12.7309C18.9799 13.8357 18.0402 14.7315 16.8811 14.7315H2.09873C0.939706 14.7315 0 13.8357 0 12.7309V4.44334C0 3.3385 0.939706 2.44273 2.09873 2.44273H4.68017V1.75051C4.68017 0.783712 5.50182 -3.05176e-05 6.51656 -3.05176e-05H12.4633C13.478 -3.05176e-05 14.2997 0.783712 14.2997 1.75051V2.44222H16.8811C18.0402 2.44273 18.9799 3.3385 18.9799 4.44334ZM14.125 8.58662C14.125 6.15037 12.0457 4.16826 9.48993 4.16826C6.93473 4.16826 4.85541 6.15037 4.85541 8.58662C4.85541 11.0229 6.93473 13.005 9.48993 13.005C12.0457 13.005 14.125 11.0229 14.125 8.58662Z"
        fill="white" />
</svg>
